<svg data-v-0dd9719b="" version="1.0" xmlns="http://www.w3.org/2000/svg" xmlns:xlink="http://www.w3.org/1999/xlink" width="100%" height="100%" viewBox="0 0 340.000000 250.000000" preserveAspectRatio="xMidYMid meet" color-interpolation-filters="sRGB" style="margin: auto;"> <rect data-v-0dd9719b="" x="0" y="0" width="100%" height="100%" fill="#fff" fill-opacity="1" class="background"></rect> <rect data-v-0dd9719b="" x="0" y="0" width="100%" height="100%" fill="url(#watermark)" fill-opacity="1" class="watermarklayer"></rect> <g data-v-0dd9719b="" fill="#333" class="icon-text-wrapper icon-svg-group iconsvg" transform="translate(48.75663757324219,90.55643463134766)"><g class="iconsvg-imagesvg" transform="translate(0,0)"><g><rect fill="#333" fill-opacity="0" stroke-width="2" x="0" y="0" width="60" height="68.88712844005097" class="image-rect"></rect> <svg x="0" y="0" width="60" height="68.88712844005097" filtersec="colorsb6686991593" class="image-svg-svg primary" style="overflow: visible;"><svg xmlns="http://www.w3.org/2000/svg" viewBox="0.02433544024825096 0 104.75301361083984 120.26822662353516"><path d="M91.56 104.16c.65.37.33.66 0 1a52 52 0 0 1-40 15c-.37 0-.83.09-1-.53-.88-4.47-3.29-8.36-4.82-12.59a120.62 120.62 0 0 1-5-18.93 148.27 148.27 0 0 1-2.5-29 130.33 130.33 0 0 1 9.89-49.38 1.32 1.32 0 0 1 .41-.61c-.15 1.45-.27 2.89-.43 4.34a117 117 0 0 0-.43 22.3 128.35 128.35 0 0 0 4.25 25.42c3 10.43 7.51 20.15 15.35 28a36 36 0 0 0 5.26 4.18 51.58 51.58 0 0 0 4.39 3.08 4.12 4.12 0 0 0 .43.41 61.71 61.71 0 0 0 10.1 5.72 17.66 17.66 0 0 0 4.1 1.59z" fill="#1da987"></path><path d="M30.55 19.63c-.83 2.92-1.61 5.63-2.36 8.34-.14.51-.55.68-.91.92A46 46 0 0 0 6.61 69.37 46.52 46.52 0 0 0 13.08 91a42.63 42.63 0 0 0 10.56 12.07c.13.1.24.25.39.21-3.56-20.85-1.3-41.28 4.73-61.43A127.23 127.23 0 0 1 50.06 0c.18 0 .14.14.11.21-3.33 8-5.38 16.34-8 24.53-1.3 4-2.89 8-4 12.05a151.57 151.57 0 0 0-4.48 22 145.49 145.49 0 0 0-1.14 17.94 115.88 115.88 0 0 0 4.65 34.31 39 39 0 0 1 1.13 8.06A52.27 52.27 0 0 1 1.36 79.25a52.73 52.73 0 0 1 29.19-59.62zM91.56 104.16a17.66 17.66 0 0 1-4.1-1.61 61.71 61.71 0 0 1-10.1-5.72 4.12 4.12 0 0 1-.43-.41 25.94 25.94 0 0 0 18.83-13.78 23.8 23.8 0 0 0 2.15-7.84 46 46 0 0 0-.5-17.8 45.5 45.5 0 0 0-13.57-23.41A45 45 0 0 0 58.3 21.75a42.65 42.65 0 0 0-6.49-.34c-.64 0-.84-.16-.82-.8v-4.76c0-.77.21-1 1-1a51.87 51.87 0 0 1 32.59 10.9A51.12 51.12 0 0 1 104 57.19a50.58 50.58 0 0 1 .37 15.24 65.38 65.38 0 0 1-4.75 19.26c-1.93 4.62-4.32 8.98-8.06 12.47z" fill="#0a507b"></path></svg></svg> <!----></g></g> <g transform="translate(67,6.046236038208008)"><g data-gra="path-name" fill-rule="" class="tp-name iconsvg-namesvg" transform="translate(0,0)"><g transform="scale(1)"><g><path d="M5.71 3.65L5.71 3.65Q6.33 3.96 7.71 3.54 9.1 3.12 9.76 2.42L9.76 2.42Q9.93 2.2 9.95 1.85 9.98 1.49 9.89-0.4L9.89-0.4Q9.76-3.52 9.73-13.07 9.71-22.63 9.84-22.94L9.84-22.94Q10.02-23.33 10.28-23.42L10.28-23.42Q10.9-23.6 17.67-23.6L17.67-23.6Q18.41-23.6 19.64-23.6L19.64-23.6Q24.21-23.6 24.92-23.4 25.62-23.2 25.36-21.97L25.36-21.97Q25.27-21.58 25.22-21.31L25.22-21.31Q24.35-16.04 23.25-15.47L23.25-15.47Q22.9-15.29 21.47-15.27 20.04-15.25 19.73-15.42L19.73-15.42Q19.38-15.6 19.4-15.8 19.42-16 19.86-16.79L19.86-16.79Q20.61-18.02 19.67-19.56 18.72-21.09 16.52-22.1L16.52-22.1Q14.55-23.03 14.55-22.5L14.55-22.5Q14.55-22.37 14.77-22.02L14.77-22.02Q16.22-19.25 16.52-17.27L16.52-17.27Q16.66-16.52 16.79-16.3L16.79-16.3Q17.4-15.64 16.22-15.34L16.22-15.34Q15.6-15.21 12.35-15.51L12.35-15.51Q11.73-15.6 11.73-15.42L11.73-15.42Q11.73-15.25 12.13-14.41L12.13-14.41Q12.48-13.67 12.68-13.54 12.88-13.4 13.36-13.54L13.36-13.54Q14.77-13.84 16.94-13.97 19.12-14.11 19.51-13.89L19.51-13.89Q20.17-13.54 20.19-11.25 20.21-8.96 19.56-8.61L19.56-8.61Q19.29-8.48 16.68-8.5 14.06-8.53 12.44-8.66L12.44-8.66Q11.38-8.75 11.27-8.64 11.16-8.53 11.6-7.65L11.6-7.65Q12.04-6.81 12.24-6.72 12.44-6.64 13.54-6.81L13.54-6.81Q19.42-7.78 20.04-6.59L20.04-6.59Q20.17-6.28 20.15-3.63 20.13-0.97 20 0.66L20 0.66Q19.86 2.15 20.3 2.5 20.74 2.86 22.24 2.55L22.24 2.55Q23.69 2.24 23.99 1.8 24.3 1.36 24.21-0.35L24.21-0.35Q23.99-5.14 24.17-5.89L24.17-5.89Q24.43-6.94 25.71-7.12L25.71-7.12Q26.15-7.16 29.09-7.21L29.09-7.21Q33.4-7.25 33.77-7.73 34.15-8.22 31.42-10.28L31.42-10.28Q30.32-11.12 29.99-11.07 29.66-11.03 28.83-10.02L28.83-10.02Q27.99-8.88 27.62-8.68 27.25-8.48 26.06-8.48L26.06-8.48Q24.65-8.48 24.39-8.85 24.13-9.23 24.13-11.21L24.13-11.21Q24.13-11.43 24.13-11.87L24.13-11.87Q24.08-13.4 24.48-13.67L24.48-13.67Q24.87-14.02 27.73-14.02L27.73-14.02Q28.48-14.02 28.87-14.02L28.87-14.02Q33.18-14.06 33.44-14.46L33.44-14.46Q33.66-14.77 32.43-15.91L32.43-15.91Q30.85-17.36 30.28-17.47 29.71-17.58 28.92-16.66L28.92-16.66Q28.3-15.82 27.93-15.58 27.55-15.34 26.89-15.29L26.89-15.29Q25.71-15.25 25.73-15.75 25.75-16.26 26.89-17.53L26.89-17.53Q27.38-18.11 28.3-19.2L28.3-19.2Q29.58-20.7 30.1-20.87L30.1-20.87Q31.2-21.18 29-22.1L29-22.1Q27.16-22.9 27.16-23.2L27.16-23.2Q27.16-23.6 31.25-23.6L31.25-23.6Q31.77-23.6 32.65-23.64L32.65-23.64Q34.76-23.73 35.09-22.83 35.42-21.93 35.38-16.35L35.38-16.35Q35.38-13.97 35.38-12.48L35.38-12.48Q35.38-11.21 35.38-9.1L35.38-9.1Q35.42-2.77 35.05-1.76 34.67-0.75 32.48-0.97L32.48-0.97Q31.73-1.01 31.29-1.05L31.29-1.05Q28.74-1.23 28.7-1.1L28.7-1.1Q28.56-0.88 28.76-0.73 28.96-0.57 29.62-0.44L29.62-0.44Q31.51-0.04 32.41 0.79 33.31 1.63 33.62 3.21L33.62 3.21Q33.66 3.69 33.9 3.76 34.15 3.82 35.07 3.65L35.07 3.65Q36.87 3.34 37.81 2.68 38.76 2.02 39.16 0.88L39.16 0.88Q39.38 0.31 39.42-10.9L39.42-10.9Q39.46-21.67 39.64-22.41L39.64-22.41Q39.73-22.81 40.17-22.98L40.17-22.98Q40.25-23.03 40.34-23.07L40.34-23.07Q41.22-23.64 41.22-23.86 41.22-24.08 39.75-25.36 38.28-26.63 37.53-26.98L37.53-26.98Q37.13-27.2 36.91-27.14 36.69-27.07 36.34-26.63L36.34-26.63Q35.2-25.36 34.94-25.18L34.94-25.18Q34.37-24.83 31.33-24.83L31.33-24.83Q30.15-24.83 29.79-24.83 29.44-24.83 28.78-24.83L28.78-24.83Q25.27-24.83 24.74-25.14L24.74-25.14Q24.3-25.49 24.3-26.89L24.3-26.89Q24.3-27.25 24.3-27.42L24.3-27.42Q24.26-29.36 24.35-29.49L24.35-29.49Q24.57-30.19 26.5-30.28L26.5-30.28Q26.89-30.28 33.44-30.32L33.44-30.32Q40.08-30.37 41.2-30.43 42.32-30.5 42.45-30.85L42.45-30.85Q42.54-31.2 41.04-32.67 39.55-34.15 38.28-34.89L38.28-34.89Q37.88-35.11 37.62-34.96 37.35-34.8 36.69-33.88L36.69-33.88Q35.82-32.83 35.55-32.43L35.55-32.43Q35.07-31.82 34.37-31.71 33.66-31.6 29.79-31.6L29.79-31.6Q25.36-31.6 24.83-31.86L24.83-31.86Q24.35-32.48 24.35-33.53L24.35-33.53Q24.35-35.24 25.05-35.64L25.05-35.64Q26.1-36.25 23.69-37L23.69-37Q22.72-37.35 21.14-37.71L21.14-37.71Q20.04-37.97 19.95-37.79L19.95-37.79Q19.91-37.71 20-36.87L20-36.87Q20.52-31.99 19.34-31.68L19.34-31.68Q18.76-31.51 11.27-31.62 3.78-31.73 2.68-31.9L2.68-31.9Q2.33-31.99 2.37-31.68L2.37-31.68Q2.42-31.42 2.77-30.67L2.77-30.67Q3.16-29.93 3.34-29.84L3.34-29.84Q3.52-29.79 5.27-30.01L5.27-30.01Q7.78-30.32 13.93-30.32L13.93-30.32Q14.55-30.32 15.6-30.32L15.6-30.32Q19.29-30.32 19.82-30.01L19.82-30.01Q20.3-29.71 20.26-28.3L20.26-28.3Q20.26-28.26 20.26-28.13L20.26-28.13Q20.26-27.69 20.26-27.42L20.26-27.42Q20.26-27.25 20.26-26.94L20.26-26.94Q20.26-25.44 19.86-25.18L19.86-25.18Q19.29-24.83 15.86-24.83L15.86-24.83Q15.25-24.83 14.9-24.83L14.9-24.83Q11.03-24.83 10.31-24.94 9.58-25.05 7.51-25.97L7.51-25.97Q5.36-26.89 5.23-26.89 5.1-26.89 5.36-24.17L5.36-24.17Q5.63-21.58 5.58-12.63 5.54-3.69 5.27 0.83L5.27 0.83Q5.14 2.68 5.21 3.08 5.27 3.47 5.71 3.65ZM63.54 3.16L63.54 3.16Q63.59 3.6 63.7 3.76 63.81 3.91 64.07 3.82L64.07 3.82Q65.65 3.82 67.08 3.1 68.51 2.37 68.95 1.41L68.95 1.41Q69.3 0.62 69.37-0.35 69.43-1.32 69.48-6.77L69.48-6.77Q69.48-6.81 69.48-9.14L69.48-9.14Q69.48-13.14 69.74-13.8 70-14.46 71.63-14.41L71.63-14.41Q72.25-14.41 72.6-14.41L72.6-14.41Q74.88-14.41 75.32-14.24 75.76-14.06 75.81-13.1L75.81-13.1Q75.81-12.52 76.25-12.28 76.68-12.04 77.45-12.19 78.22-12.35 79.23-12.83L79.23-12.83Q80.07-13.23 80.18-13.45 80.29-13.67 80.24-14.72L80.24-14.72Q79.98-20.17 80.13-21.73 80.29-23.29 81.21-23.73L81.21-23.73Q82.13-24.13 81.52-24.87L81.52-24.87Q81.04-25.44 79.37-26.67L79.37-26.67Q78.09-27.64 77.74-27.64 77.39-27.64 76.6-26.72L76.6-26.72Q75.89-25.84 75.72-25.75L75.72-25.75Q75.1-25.44 70.71-25.4L70.71-25.4Q67.68-25.4 67.28-25.4L67.28-25.4Q59.28-25.4 58.89-25.53L58.89-25.53Q57.17-26.24 56.51-26.46L56.51-26.46Q54.49-27.29 54.4-27.07L54.4-27.07Q54.36-26.98 54.4-26.76L54.4-26.76Q54.71-24.79 54.76-20.52 54.8-16.26 54.58-12.92L54.58-12.92Q54.54-11.95 55.02-11.71 55.5-11.47 56.91-11.82L56.91-11.82Q58.84-12.3 58.84-13.23L58.84-13.23Q58.84-13.54 59.06-13.86 59.28-14.19 59.5-14.28L59.5-14.28Q59.77-14.41 62.16-14.41 64.56-14.41 64.82-14.28L64.82-14.28Q65.21-14.06 65.28-13.27 65.35-12.48 65.35-7.73L65.35-7.73Q65.35-7.16 65.35-6.15L65.35-6.15Q65.35-4.44 65.35-3.76 65.35-3.08 65.19-2.26 65.04-1.45 64.8-1.3 64.56-1.14 63.96-0.94 63.37-0.75 62.62-0.81 61.88-0.88 60.6-1.01L60.6-1.01Q59.72-1.1 59.24-1.14L59.24-1.14Q58.58-1.19 58.54-1.05L58.54-1.05Q58.45-0.83 58.67-0.7 58.89-0.57 59.63-0.4L59.63-0.4Q61.48-0.04 62.38 0.77 63.28 1.58 63.54 3.16ZM75.23-15.82L75.23-15.82Q74.88-15.64 67.39-15.62 59.9-15.6 59.55-15.78L59.55-15.78Q59.06-16 58.97-16.57 58.89-17.14 58.89-19.91L58.89-19.91Q58.89-22.85 58.89-22.94L58.89-22.94Q59.06-23.86 60.29-24.04L60.29-24.04Q61.08-24.13 67.41-24.13L67.41-24.13Q73.87-24.13 74.4-24.04L74.4-24.04Q75.67-23.86 75.85-22.98L75.85-22.98Q75.85-22.72 75.85-19.91L75.85-19.91Q75.85-17.09 75.76-16.55 75.67-16 75.23-15.82ZM47.46 1.27L47.46 1.27Q47.64 1.41 47.81 1.36 47.99 1.32 49.22 0.79L49.22 0.79Q54.84-1.76 59.59-6.02L59.59-6.02Q60.91-7.25 61.44-7.34L61.44-7.34Q62.75-7.56 60.78-8.61L60.78-8.61Q59.68-9.23 58.71-9.89L58.71-9.89Q57.39-10.72 57.26-10.68L57.26-10.68Q57.08-10.68 56.65-9.71L56.65-9.71Q54.14-4.57 48.3 0.18L48.3 0.18Q47.55 0.75 47.42 0.92 47.29 1.1 47.46 1.27ZM82.53 1.19L82.53 1.19Q83.8 1.67 84.7 0.9 85.61 0.13 85.39-1.27L85.39-1.27Q84.99-3.74 81.87-5.98 78.75-8.22 74.14-9.4L74.14-9.4Q73.56-9.54 73.32-9.49 73.08-9.45 73.23-9.18 73.39-8.92 73.87-8.53L73.87-8.53Q76.2-6.59 78.53-3.91 80.86-1.23 81.96 0.7L81.96 0.7Q82.18 1.05 82.53 1.19ZM48.74-29.71L48.74-29.71Q48.82-29.53 49.79-29.71L49.79-29.71Q51.86-30.01 54.1-30.06 56.34-30.1 69.57-30.15L69.57-30.15Q86.09-30.19 86.75-30.37L86.75-30.37Q86.92-30.41 87.06-30.63L87.06-30.63Q87.36-31.11 85.1-33.16 82.84-35.2 82.31-34.94L82.31-34.94Q81.78-34.63 80.6-32.7L80.6-32.7Q79.89-31.68 79.28-31.55 78.66-31.42 74.75-31.42L74.75-31.42Q74.44-31.42 73.92-31.42L73.92-31.42Q70.53-31.42 69.98-31.66 69.43-31.9 69.48-33.31L69.48-33.31Q69.48-33.53 69.48-33.62L69.48-33.62Q69.52-35.33 70.09-35.68L70.09-35.68Q71.1-36.21 69.39-36.87L69.39-36.87Q68.51-37.18 66.53-37.71L66.53-37.71Q65.26-38.01 65.08-37.95 64.91-37.88 65-37.27L65-37.27Q65.65-32.04 64.51-31.55L64.51-31.55Q64.07-31.38 56.76-31.44 49.44-31.51 48.16-31.73L48.16-31.73Q47.68-31.82 48.12-30.81L48.12-30.81Q48.34-30.23 48.74-29.71ZM100.59 3.56L100.59 3.56Q100.72 3.78 101.01 3.76 101.29 3.74 102.74 3.52L102.74 3.52Q110.39 2.29 115.8-0.35L115.8-0.35Q117.42-1.14 117.84-1.12 118.26-1.1 119.58-0.22L119.58-0.22Q122.92 1.93 127.27 3.21L127.27 3.21Q129.16 3.74 129.57 3.76 129.99 3.78 130.08 3.3L130.08 3.3Q130.21 2.46 130.96 1.47 131.7 0.48 132.45 0.18L132.45 0.18Q133.95-0.53 132.1-0.66L132.1-0.66Q129.51-0.88 125.95-1.74 122.39-2.59 121.77-3.12L121.77-3.12Q121.33-3.47 121.49-3.85 121.64-4.22 122.7-5.32L122.7-5.32Q124.76-7.47 125.68-8.88L125.68-8.88Q126.52-10.11 126.96-10.48 127.4-10.85 128.01-10.94L128.01-10.94Q129.64-11.16 127.49-13.05L127.49-13.05Q127.18-13.32 126.83-13.62L126.83-13.62Q125.55-14.68 125.18-14.72 124.8-14.77 123.97-13.89L123.97-13.89Q123.05-12.92 122.56-12.81 122.08-12.7 119.31-12.7L119.31-12.7Q116.67-12.7 116.21-12.79 115.75-12.88 115.75-13.36 115.75-13.84 116.41-14.68 117.07-15.51 117.51-15.64L117.51-15.64Q118.7-15.95 116.24-17.09L116.24-17.09Q115.53-17.4 114.48-17.84L114.48-17.84Q113.33-18.28 113.14-18.28 112.94-18.28 112.81-17.75L112.81-17.75Q110.83-10.81 104.59-5.19L104.59-5.19Q103.71-4.39 103.54-4.15 103.36-3.91 103.58-3.74L103.58-3.74Q103.89-3.56 106.15-4.94 108.41-6.33 110.3-7.87L110.3-7.87Q111.75-9.1 112.13-9.05 112.5-9.01 113.25-7.51L113.25-7.51Q113.73-6.59 114.43-5.45L114.43-5.45Q115.4-4 115.22-3.47 115.05-2.94 113.25-1.89L113.25-1.89Q108.94 0.66 102.04 2.64L102.04 2.64Q101.43 2.81 101.1 2.92 100.77 3.03 100.61 3.14 100.46 3.25 100.48 3.34 100.5 3.43 100.59 3.56ZM118.34-5.89L118.34-5.89Q117.77-5.45 117.18-5.69 116.59-5.93 115.4-7.12L115.4-7.12Q113.64-8.83 113.36-9.76 113.07-10.68 114.08-11.25L114.08-11.25Q114.43-11.43 117.8-11.45 121.16-11.47 121.51-11.29L121.51-11.29Q122.17-10.94 121.68-10.06L121.68-10.06Q121.38-9.32 120.15-7.8 118.92-6.28 118.34-5.89ZM96.46 1.54L96.46 1.54Q97.95 2.15 98.9 1.21 99.84 0.26 99.91-1.76 99.98-3.78 99.23-6.5L99.23-6.5Q98.44-9.1 98.77-10.9 99.1-12.7 101.78-20.3L101.78-20.3Q103.45-25.09 103.89-25.62L103.89-25.62Q104.19-26.06 104.15-26.41L104.15-26.41Q104.15-26.98 104.46-27.82L104.46-27.82Q104.72-28.65 104.74-28.83 104.77-29 104.55-29.09L104.55-29.09Q104.28-29.22 104.02-28.74L104.02-28.74Q103.62-28.08 101.47-23.55L101.47-23.55Q101.21-22.98 100.72-21.97L100.72-21.97Q96.37-12.83 95.54-11.73L95.54-11.73Q94.97-10.94 94.04-10.9L94.04-10.9Q94-10.9 93.91-10.9L93.91-10.9Q93.74-10.9 93.65-10.9L93.65-10.9Q92.86-10.85 92.64-10.74 92.42-10.63 92.55-10.28L92.55-10.28Q92.64-10.06 93.25-9.93L93.25-9.93Q94.83-9.58 95.32-7.73 95.8-5.89 95.36-1.89L95.36-1.89Q95.05 0.92 96.46 1.54ZM103.01-13.54L103.01-13.54Q103.23-13.32 105.12-14.15 107.01-14.99 108.37-15.91L108.37-15.91Q110.43-17.27 111.77-18.79 113.12-20.3 114.26-22.54L114.26-22.54Q115.05-24.13 115.33-24.32 115.62-24.52 117.11-24.52L117.11-24.52Q118.74-24.52 118.96-24.26L118.96-24.26Q119.31-23.95 119.36-21.36L119.36-21.36Q119.36-21.01 119.36-20.87L119.36-20.87Q119.4-17.27 119.9-16.63 120.41-16 123.13-15.91L123.13-15.91Q133.07-15.51 132.5-18.11L132.5-18.11Q132.45-18.15 132.45-18.19L132.45-18.19Q132.45-18.63 131.88-19.2 131.31-19.78 131.18-21.8L131.18-21.8Q131.13-23.07 130.96-23.16L130.96-23.16Q130.78-23.25 130.47-22.41L130.47-22.41Q130.34-22.1 130.21-21.67L130.21-21.67Q129.59-19.86 129.07-19.53 128.54-19.2 126.08-19.2 123.62-19.2 123.27-19.51 122.92-19.82 122.87-21.84L122.87-21.84Q122.87-22.06 122.87-22.5L122.87-22.5Q122.83-23.95 123.18-24.26L123.18-24.26Q123.57-24.57 126.43-24.57L126.43-24.57Q127.13-24.57 127.57-24.57L127.57-24.57Q130.78-24.61 131.35-24.65 131.92-24.7 132.14-25.05L132.14-25.05Q132.58-25.71 129.68-27.91L129.68-27.91Q128.8-28.56 128.43-28.65 128.06-28.74 127.75-28.48 127.44-28.21 126.52-27.03L126.52-27.03Q125.86-26.1 125.38-25.97 124.89-25.84 122.61-25.84L122.61-25.84Q120.1-25.88 119.75-26.17 119.4-26.46 119.4-28.52L119.4-28.52Q119.4-30.41 119.58-30.67L119.58-30.67Q119.88-31.2 122.26-31.25L122.26-31.25Q122.34-31.25 125.46-31.25L125.46-31.25Q129.59-31.25 130.3-31.31 131-31.38 131.13-31.73L131.13-31.73Q131.35-32.3 128.89-34.28L128.89-34.28Q127.92-35.02 127.57-35.16 127.22-35.29 126.91-35.07 126.61-34.85 125.86-33.88L125.86-33.88Q125.02-32.83 124.65-32.67 124.28-32.52 122.34-32.48L122.34-32.48Q120.19-32.48 119.88-32.65L119.88-32.65Q119.36-33 119.4-34.08 119.44-35.16 120.01-35.46L120.01-35.46Q121.03-35.95 119.31-36.61L119.31-36.61Q118.43-36.96 116.46-37.49L116.46-37.49Q115.44-37.75 115.29-37.68 115.14-37.62 115.18-37L115.18-37Q115.66-33.27 114.87-32.7L114.87-32.7Q114.65-32.48 111.56-32.48 108.46-32.48 106.48-32.65L106.48-32.65Q105.42-32.74 105.34-32.65 105.25-32.56 105.64-31.68L105.64-31.68Q106.04-30.85 106.22-30.74 106.39-30.63 107.05-30.72L107.05-30.72Q108.9-31.03 111.62-31.18 114.35-31.33 114.74-31.11L114.74-31.11Q115.36-30.81 115.42-28.63 115.49-26.46 114.87-26.06L114.87-26.06Q114.52-25.84 110.17-25.88 105.82-25.93 104.63-26.15L104.63-26.15Q104.24-26.24 104.41-25.71L104.41-25.71Q104.5-25.49 104.72-25.05L104.72-25.05Q105.12-24.21 105.27-24.1 105.42-23.99 105.91-24.17L105.91-24.17Q108.59-24.87 109.6-24.5 110.61-24.13 110.13-22.59L110.13-22.59Q108.54-17.84 103.93-14.72L103.93-14.72Q102.7-13.89 103.01-13.54ZM98.88-27.33L98.88-27.33Q100.72-26.67 101.43-28.26L101.43-28.26Q102.13-29.93 100.9-31.86L100.9-31.86Q100.5-32.48 99.98-32.96L99.98-32.96Q98.22-34.58 95.71-35.38L95.71-35.38Q94.26-35.86 94.35-35.29L94.35-35.29Q94.39-35.11 94.61-34.85L94.61-34.85Q97.08-31.77 97.78-28.7L97.78-28.7Q97.95-27.99 98.15-27.77 98.35-27.55 98.88-27.33ZM145.28 3.69L145.28 3.69Q145.72 3.82 146.58 3.54 147.44 3.25 148.05 2.77L148.05 2.77Q148.45 2.46 148.51 2.11 148.58 1.76 148.49 0.53L148.49 0.53Q148.36-1.8 148.34-5.78 148.32-9.76 148.45-10.06L148.45-10.06Q148.93-11.03 150.05-10.7 151.17-10.37 151.08-9.27L151.08-9.27Q151-8.44 151.92-8.39L151.92-8.39Q152.97-8.39 154.2-9.36L154.2-9.36Q154.6-9.67 154.64-10.37 154.69-11.07 154.51-15.64L154.51-15.64Q154.38-20.17 154.69-20.48L154.69-20.48Q154.95-20.79 156.23-19.51L156.23-19.51Q156.31-19.42 156.49-19.25L156.49-19.25Q157.63-18.11 157.85-18.02 158.07-17.93 158.69-18.41L158.69-18.41Q160.18-19.51 160.73-19.14 161.28-18.76 160.71-16.96L160.71-16.96Q158.29-9.62 153.24-4.48L153.24-4.48Q152.14-3.38 151.96-3.1 151.79-2.81 152.01-2.64L152.01-2.64Q152.18-2.46 152.4-2.57 152.62-2.68 153.63-3.43L153.63-3.43Q161.15-8.83 164.36-17.53L164.36-17.53Q164.75-18.59 165.04-18.92 165.32-19.25 165.85-19.25L165.85-19.25Q166.99-19.25 166.46-16.74L166.46-16.74Q163.87-4.83 155.87 1.27L155.87 1.27Q154.82 2.07 155.08 2.42L155.08 2.42Q155.35 2.59 156.23 2.11L156.23 2.11Q161.81-1.23 165.21-5.93 168.62-10.63 170.24-17.18L170.24-17.18Q170.68-19.07 171.61-19.34L171.61-19.34Q172.31-19.56 172.49-18.5L172.49-18.5Q172.53-18.24 172.53-17.93L172.53-17.93Q172.53-15.12 171.85-10.24 171.17-5.36 170.51-3.38L170.51-3.38Q169.85-1.36 168.86-0.92 167.87-0.48 164.66-0.7L164.66-0.7Q163.04-0.79 162.99-0.7L162.99-0.7Q162.82-0.44 163.06-0.29 163.3-0.13 164.31 0.18L164.31 0.18Q165.54 0.57 166.14 1.25 166.73 1.93 166.86 3.16L166.86 3.16Q166.9 3.6 167.08 3.69 167.26 3.78 168 3.74L168 3.74Q170.68 3.38 172.2 1.49 173.72-0.4 174.59-4.53 175.47-8.66 176.04-16.35L176.04-16.35Q176.13-17.84 176.35-18.28 176.57-18.72 177.32-19.03L177.32-19.03Q178.02-19.38 177.8-19.86 177.58-20.35 176.13-21.53L176.13-21.53Q174.86-22.59 174.48-22.63 174.11-22.68 173.23-21.8L173.23-21.8Q172.4-20.92 172.09-20.83L172.09-20.83Q171.52-20.61 167.04-20.61L167.04-20.61Q166.68-20.61 166.03-20.61L166.03-20.61Q162.03-20.61 161.74-20.98 161.46-21.36 163.74-23.64L163.74-23.64Q164.14-24.04 164.36-24.26L164.36-24.26Q168.18-28.13 170.68-30.89L170.68-30.89Q171.52-31.77 171.89-32.04 172.27-32.3 172.97-32.43L172.97-32.43Q174.42-32.74 174.42-33.13L174.42-33.13Q174.38-33.31 174.16-33.53L174.16-33.53Q171.52-35.95 170.9-36.3 170.29-36.65 169.72-35.9L169.72-35.9Q168.79-34.8 168-34.63L168-34.63Q167.34-34.45 162.27-34.58 157.19-34.72 156.05-34.89L156.05-34.89Q155.7-34.98 155.74-34.72L155.74-34.72Q155.79-34.5 156.09-33.79L156.09-33.79Q156.49-32.96 156.71-32.87 156.93-32.78 157.98-32.96L157.98-32.96Q160.31-33.27 163.48-33.35 166.64-33.44 166.95-33.18L166.95-33.18Q167.17-32.96 167.01-32.52 166.86-32.08 166.09-31.14 165.32-30.19 163.96-28.74 162.6-27.29 160.4-25.09L160.4-25.09Q158.16-22.85 157.61-22.43 157.06-22.02 155.79-21.62L155.79-21.62Q155-21.4 154.84-21.42 154.69-21.45 154.51-21.88L154.51-21.88Q154.42-22.19 154.42-24.41 154.42-26.63 154.51-26.85L154.51-26.85Q154.56-27.03 154.89-27.38 155.21-27.73 155.3-27.73L155.3-27.73Q156.4-27.73 155.43-29L155.43-29Q154.78-29.88 153.41-30.89L153.41-30.89Q152.84-31.38 152.56-31.31 152.27-31.25 151.66-30.41L151.66-30.41Q150.34-28.61 148.93-29.36L148.93-29.36Q148.18-29.71 148.18-32.34 148.18-34.98 148.93-35.64L148.93-35.64Q149.63-36.3 148.75-36.74L148.75-36.74Q148.1-37.09 145.9-37.71L145.9-37.71Q144.76-38.06 144.6-37.97 144.45-37.88 144.58-36.78L144.58-36.78Q144.93-33.53 144.98-31.99 145.02-30.45 144.51-29.66 144.01-28.87 143.04-29.07 142.08-29.27 140.14-30.15L140.14-30.15Q138.74-30.81 138.58-30.74 138.43-30.67 138.56-29.58L138.56-29.58Q138.91-26.41 138.91-19.64L138.91-19.64Q138.91-13.8 138.78-12.22L138.78-12.22Q138.56-8.57 138.76-7.98 138.96-7.38 140.19-7.65L140.19-7.65Q141.15-7.82 141.57-8.2 141.99-8.57 142.08-9.32L142.08-9.32Q142.16-10.42 143.15-10.7 144.14-10.99 144.76-10.11L144.76-10.11Q144.93-9.89 144.95-6.68 144.98-3.47 144.8-0.97L144.8-0.97Q144.58 3.08 144.8 3.43L144.8 3.43Q144.89 3.56 145.28 3.69ZM144.45-12.22L144.45-12.22Q144.14-11.95 143.53-11.95L143.53-11.95Q142.47-11.95 142.25-12.5 142.03-13.05 142.03-15.64 142.03-18.24 142.25-18.79 142.47-19.34 143.53-19.34 144.58-19.34 144.78-18.81 144.98-18.28 144.98-15.64L144.98-15.64Q144.98-13.49 144.89-12.96 144.8-12.44 144.45-12.22ZM150.56-12.08L150.56-12.08Q150.29-11.95 149.68-11.95 149.06-11.95 148.84-12.13L148.84-12.13Q148.49-12.35 148.4-12.85 148.32-13.36 148.32-15.64L148.32-15.64Q148.32-18.33 148.51-18.83 148.71-19.34 149.72-19.34 150.73-19.34 150.93-18.83 151.13-18.33 151.13-15.64L151.13-15.64Q151.13-13.4 151.04-12.85 150.95-12.3 150.56-12.08ZM144.32-20.74L144.32-20.74Q143.83-20.52 143.15-20.65 142.47-20.79 142.25-21.18L142.25-21.18Q142.08-21.45 142.03-23.99 141.99-26.54 142.16-27.07L142.16-27.07Q142.34-27.64 143.11-27.86 143.88-28.08 144.45-27.69L144.45-27.69Q145.11-27.25 145.04-24.17 144.98-21.09 144.32-20.74ZM150.47-20.79L150.47-20.79Q150.12-20.61 149.72-20.61L149.72-20.61Q148.75-20.61 148.54-21.16 148.32-21.71 148.32-24.3 148.32-26.89 148.51-27.4 148.71-27.91 149.72-27.91 150.73-27.91 150.93-27.4 151.13-26.89 151.13-24.3L151.13-24.3Q151.13-22.02 151.02-21.51 150.91-21.01 150.47-20.79Z" transform="translate(-2.3658974170684814, 37.98841094970703)"></path></g> <!----> <!----> <!----> <!----> <!----> <!----> <!----></g></g> <g data-gra="path-slogan" fill-rule="" class="tp-slogan iconsvg-slogansvg" fill="#333" transform="translate(5,47.842159271240234)"><rect x="0" height="1" y="3.9750003814697266" width="17.163360595703125"></rect> <rect height="1" y="3.9750003814697266" width="17.163360595703125" x="148.3233642578125"></rect> <g transform="translate(20.163360595703125,0)"><g transform="scale(1)"><path d="M2.30-8.58L6.61-1.64L6.61-8.58L7.73-8.58L7.73 0L6.42 0L2.06-6.94L2.02-6.94L2.02 0L0.89 0L0.89-8.58L2.30-8.58ZM15.19 0L14.34-2.48L10.88-2.48L9.98 0L8.81 0L12.05-8.58L13.36-8.58L16.45 0L15.19 0ZM12.61-7.31L11.25-3.52L13.92-3.52L12.66-7.31L12.61-7.31ZM18.89-8.58L23.20-1.64L23.20-8.58L24.33-8.58L24.33 0L23.02 0L18.66-6.94L18.61-6.94L18.61 0L17.48 0L17.48-8.58L18.89-8.58ZM25.41-1.92L25.41-2.77L26.48-2.77L26.48-2.16Q26.48-0.75 27.80-0.75L27.80-0.75Q29.16-0.75 29.16-2.25L29.16-2.25L29.16-8.58L30.33-8.58L30.33-2.30Q30.28 0.09 27.84 0.14L27.84 0.14Q25.55 0.09 25.41-1.92L25.41-1.92ZM32.30-8.58L33.47-8.58L33.47 0L32.30 0L32.30-8.58ZM36.84-8.58L41.16-1.64L41.16-8.58L42.28-8.58L42.28 0L40.97 0L36.61-6.94L36.56-6.94L36.56 0L35.44 0L35.44-8.58L36.84-8.58ZM50.48-3.61L47.86-3.61L47.86-4.59L51.61-4.59L51.61 0L50.86 0L50.58-1.08Q49.59 0.09 47.77 0.14L47.77 0.14Q46.03 0.14 45.09-0.75L45.09-0.75Q43.69-2.06 43.73-4.36L43.73-4.36Q44.06-8.63 47.81-8.81L47.81-8.81Q51-8.63 51.47-6L51.47-6L50.34-6Q49.88-7.78 47.77-7.83L47.77-7.83Q45.09-7.64 44.95-4.31L44.95-4.31Q44.95-0.75 47.81-0.75L47.81-0.75Q48.84-0.75 49.59-1.31L49.59-1.31Q50.53-2.06 50.48-3.61L50.48-3.61ZM56.72-8.58L57.89-8.58L57.89-1.03L62.25-1.03L62.25 0L56.72 0L56.72-8.58ZM63.56-8.58L64.73-8.58L64.73 0L63.56 0L63.56-8.58ZM68.11-8.58L72.42-1.64L72.42-8.58L73.55-8.58L73.55 0L72.23 0L67.88-6.94L67.83-6.94L67.83 0L66.70 0L66.70-8.58L68.11-8.58ZM81.75-3.61L79.13-3.61L79.13-4.59L82.88-4.59L82.88 0L82.13 0L81.84-1.08Q80.86 0.09 79.03 0.14L79.03 0.14Q77.30 0.14 76.36-0.75L76.36-0.75Q74.95-2.06 75-4.36L75-4.36Q75.33-8.63 79.08-8.81L79.08-8.81Q82.27-8.63 82.73-6L82.73-6L81.61-6Q81.14-7.78 79.03-7.83L79.03-7.83Q76.36-7.64 76.22-4.31L76.22-4.31Q76.22-0.75 79.08-0.75L79.08-0.75Q80.11-0.75 80.86-1.31L80.86-1.31Q81.80-2.06 81.75-3.61L81.75-3.61ZM91.83-6.05L91.83-6.05L90.70-6.05Q90.28-7.78 88.31-7.83L88.31-7.83Q85.59-7.69 85.50-4.36L85.50-4.36Q85.50-0.80 88.36-0.80L88.36-0.80Q90.33-0.84 90.80-3.19L90.80-3.19L91.92-3.19Q91.41 0.05 88.13 0.14L88.13 0.14Q84.38 0 84.28-4.31L84.28-4.31Q84.47-8.63 88.31-8.81L88.31-8.81Q91.36-8.72 91.83-6.05ZM94.45-5.06L98.95-5.06L98.95-8.58L100.13-8.58L100.13 0L98.95 0L98.95-3.98L94.45-3.98L94.45 0L93.28 0L93.28-8.58L94.45-8.58L94.45-5.06ZM107.58 0L106.73-2.48L103.27-2.48L102.38 0L101.20 0L104.44-8.58L105.75-8.58L108.84 0L107.58 0ZM105-7.31L103.64-3.52L106.31-3.52L105.05-7.31L105-7.31ZM111.28-8.58L115.59-1.64L115.59-8.58L116.72-8.58L116.72 0L115.41 0L111.05-6.94L111-6.94L111 0L109.88 0L109.88-8.58L111.28-8.58ZM124.92-3.61L122.30-3.61L122.30-4.59L126.05-4.59L126.05 0L125.30 0L125.02-1.08Q124.03 0.09 122.20 0.14L122.20 0.14Q120.47 0.14 119.53-0.75L119.53-0.75Q118.13-2.06 118.17-4.36L118.17-4.36Q118.50-8.63 122.25-8.81L122.25-8.81Q125.44-8.63 125.91-6L125.91-6L124.78-6Q124.31-7.78 122.20-7.83L122.20-7.83Q119.53-7.64 119.39-4.31L119.39-4.31Q119.39-0.75 122.25-0.75L122.25-0.75Q123.28-0.75 124.03-1.31L124.03-1.31Q124.97-2.06 124.92-3.61L124.92-3.61Z" transform="translate(-0.890625, 8.8125)"></path></g></g></g></g></g><defs v-gra="od"></defs></svg>